<svg width="216" height="66" viewBox="0 0 216 66" fill="none" xmlns="http://www.w3.org/2000/svg">
<path d="M207.65 1.94477C209.471 1.94712 211.217 2.66977 212.504 3.95424C213.792 5.23871 214.516 6.98015 214.519 8.79666V57.6689C214.517 59.4855 213.792 61.2272 212.505 62.5117C211.217 63.7963 209.471 64.5188 207.65 64.5208H8.34965C6.5287 64.5188 4.7829 63.7963 3.4953 62.5117C2.2077 61.2272 1.48344 59.4855 1.48148 57.6689V8.79666C1.48383 6.98015 2.20818 5.23871 3.4957 3.95424C4.78321 2.66977 6.52882 1.94712 8.34965 1.94477H207.65V1.94477ZM207.65 0.466797H8.34965C6.13519 0.466797 4.01143 1.3444 2.44557 2.90656C0.879706 4.46871 0 6.58745 0 8.79666V57.6689C0 59.8781 0.879706 61.9968 2.44557 63.559C4.01143 65.1211 6.13519 65.9988 8.34965 65.9988H207.65C208.747 65.9988 209.833 65.7833 210.846 65.3647C211.859 64.9461 212.779 64.3325 213.554 63.559C214.33 62.7855 214.945 61.8672 215.364 60.8566C215.784 59.846 216 58.7628 216 57.6689V8.79666C216 7.70277 215.784 6.61958 215.364 5.60895C214.945 4.59832 214.33 3.68006 213.554 2.90656C212.779 2.13306 211.859 1.51949 210.846 1.10087C209.833 0.682257 208.747 0.466797 207.65 0.466797V0.466797Z" fill="white"/>
<path d="M22.7437 27.2432C19.2385 33.3029 21.4667 42.5151 25.3422 48.096C27.2756 50.8879 29.2341 53.393 31.9155 53.393H32.0637C33.3229 53.3443 34.2341 52.957 35.1141 52.5831C36.1022 52.1619 37.1259 51.7274 38.7289 51.7274C40.2548 51.7274 41.2281 52.1486 42.1689 52.5535C43.1096 52.9585 44.0533 53.3694 45.4652 53.3428C48.4859 53.2866 50.3407 50.5834 51.9837 48.1994C53.2087 46.4016 54.1695 44.4382 54.837 42.3688L54.8489 42.3319C54.8751 42.2526 54.8712 42.1664 54.8379 42.0898C54.8046 42.0132 54.7441 41.9515 54.6681 41.9166L54.643 41.9047C54.1111 41.689 49.4444 39.6227 49.3955 33.9931C49.3496 29.4203 52.8963 26.9979 53.6074 26.5589L53.6415 26.5382C53.6796 26.5138 53.7123 26.482 53.7378 26.4447C53.7632 26.4073 53.7809 26.3653 53.7896 26.321C53.7987 26.2766 53.7987 26.2308 53.7898 26.1864C53.7809 26.142 53.7632 26.0998 53.7378 26.0623C51.2889 22.4886 47.5378 21.9491 46.0266 21.8856C45.8032 21.8629 45.5787 21.8516 45.354 21.8516C43.5763 21.8516 41.88 22.5211 40.5155 23.0576C39.5718 23.4286 38.7585 23.7493 38.197 23.7493C37.5659 23.7493 36.7466 23.4241 35.8 23.0502C34.5303 22.5477 33.0933 21.9787 31.5733 21.9787H31.4652C27.9274 22.0274 24.5926 24.0464 22.7437 27.2432Z" fill="white"/>
<path d="M46.0296 12.0435C43.8874 12.1307 41.3185 13.4461 39.7822 15.2403C38.477 16.7493 37.203 19.2648 37.5378 21.7996C37.5475 21.8771 37.5837 21.9489 37.6405 22.0028C37.6972 22.0566 37.7708 22.0893 37.8489 22.0952C37.997 22.107 38.1452 22.1129 38.2933 22.1129C40.3882 22.1129 42.6474 20.9556 44.1911 19.0949C45.8208 17.1306 46.6356 14.6078 46.3882 12.3479C46.3788 12.261 46.3364 12.181 46.2697 12.1244C46.203 12.0678 46.1171 12.0388 46.0296 12.0435V12.0435Z" fill="white"/>
<path d="M70.6771 11.8692H74.7378C75.7241 11.8507 76.6996 12.0772 77.5763 12.5284C78.3764 12.9436 79.0437 13.5745 79.5022 14.3493C79.955 15.156 80.1927 16.0651 80.1927 16.9897C80.1927 17.9142 79.955 18.8233 79.5022 19.6301C79.0437 20.4052 78.3765 21.0366 77.5763 21.4524C76.6995 21.9032 75.724 22.1292 74.7378 22.1101H70.6771V11.8692ZM74.6771 21.4376C75.5461 21.4558 76.4064 21.2625 77.1837 20.8745C77.8826 20.523 78.4638 19.976 78.8563 19.3005C79.2413 18.5908 79.4429 17.7966 79.4429 16.9897C79.4429 16.1827 79.2413 15.3885 78.8563 14.6789C78.4637 14.0037 77.8825 13.4573 77.1837 13.1063C76.4065 12.7178 75.5462 12.524 74.6771 12.5417H71.4178V21.4376H74.6771Z" fill="white"/>
<path d="M83.5881 21.6713C83.012 21.3459 82.5377 20.8676 82.2178 20.2894C81.8908 19.6749 81.7198 18.9898 81.7198 18.2941C81.7198 17.5984 81.8908 16.9133 82.2178 16.2988C82.5377 15.7206 83.012 15.2423 83.5881 14.9169C84.1887 14.5902 84.8618 14.4189 85.5459 14.4189C86.23 14.4189 86.9031 14.5902 87.5037 14.9169C88.0794 15.2427 88.5537 15.721 88.874 16.2988C89.201 16.9133 89.3721 17.5984 89.3721 18.2941C89.3721 18.9898 89.201 19.6749 88.874 20.2894C88.5537 20.8672 88.0794 21.3455 87.5037 21.6713C86.9031 21.998 86.23 22.1693 85.5459 22.1693C84.8618 22.1693 84.1887 21.998 83.5881 21.6713V21.6713ZM87.123 21.1008C87.5865 20.8272 87.9666 20.4327 88.2222 19.9598C88.4871 19.4435 88.6252 18.8718 88.6252 18.2919C88.6252 17.7119 88.4871 17.1403 88.2222 16.624C87.9666 16.151 87.5865 15.7566 87.123 15.483C86.6409 15.2145 86.098 15.0736 85.5459 15.0736C84.9938 15.0736 84.4509 15.2145 83.9689 15.483C83.5049 15.756 83.1247 16.1506 82.8696 16.624C82.6048 17.1403 82.4666 17.7119 82.4666 18.2919C82.4666 18.8718 82.6048 19.4435 82.8696 19.9598C83.1247 20.4332 83.5049 20.8278 83.9689 21.1008C84.4509 21.3692 84.9938 21.5102 85.5459 21.5102C86.098 21.5102 86.6409 21.3692 87.123 21.1008V21.1008Z" fill="white"/>
<path d="M102.37 14.4731L99.4667 22.1098H98.7778L96.1971 15.4826L93.6015 22.1098H92.9259L90.0222 14.4731H90.7274L93.2785 21.291L95.8889 14.4731H96.5185L99.1141 21.2718L101.696 14.4731H102.37Z" fill="white"/>
<path d="M110.074 15.2493C110.633 15.805 110.912 16.6046 110.911 17.648V22.11H110.178V17.7071C110.178 16.8489 109.96 16.1952 109.524 15.7459C109.089 15.2966 108.48 15.0724 107.699 15.0734C106.799 15.0734 106.091 15.3414 105.573 15.8774C105.056 16.4134 104.797 17.1351 104.796 18.0426V22.11H104.055V14.4733H104.759V16.1272C105.017 15.5974 105.43 15.1583 105.944 14.8679C106.511 14.5548 107.151 14.3982 107.798 14.4142C108.761 14.4142 109.52 14.6926 110.074 15.2493Z" fill="white"/>
<path d="M113.936 11.2544H114.667V22.1101H113.935L113.936 11.2544Z" fill="white"/>
<path d="M118.797 21.6713C118.221 21.346 117.746 20.8676 117.425 20.2894C117.099 19.6746 116.929 18.9896 116.929 18.2941C116.929 17.5986 117.099 16.9136 117.425 16.2988C117.746 15.7206 118.221 15.2422 118.797 14.9169C119.398 14.5902 120.071 14.4189 120.755 14.4189C121.439 14.4189 122.112 14.5902 122.713 14.9169C123.288 15.2427 123.763 15.721 124.083 16.2988C124.41 16.9133 124.581 17.5984 124.581 18.2941C124.581 18.9898 124.41 19.6749 124.083 20.2894C123.763 20.8672 123.288 21.3455 122.713 21.6713C122.112 21.998 121.439 22.1693 120.755 22.1693C120.071 22.1693 119.398 21.998 118.797 21.6713V21.6713ZM122.33 21.1008C122.795 20.8279 123.176 20.4333 123.431 19.9598C123.696 19.4435 123.834 18.8718 123.834 18.2919C123.834 17.7119 123.696 17.1403 123.431 16.624C123.176 16.1505 122.795 15.7559 122.33 15.483C121.849 15.2145 121.306 15.0736 120.754 15.0736C120.202 15.0736 119.66 15.2145 119.178 15.483C118.714 15.756 118.334 16.1506 118.079 16.624C117.813 17.14 117.674 17.7117 117.674 18.2919C117.674 18.872 117.813 19.4438 118.079 19.9598C118.334 20.4332 118.714 20.8278 119.178 21.1008C119.66 21.3692 120.202 21.5102 120.754 21.5102C121.306 21.5102 121.849 21.3692 122.33 21.1008V21.1008Z" fill="white"/>
<path d="M131.591 15.1383C132.1 15.6211 132.354 16.331 132.354 17.2681V22.1099H131.65V20.7487C131.407 21.197 131.034 21.5617 130.579 21.7951C130.057 22.0561 129.478 22.1845 128.893 22.169C128.043 22.169 127.371 21.969 126.877 21.569C126.649 21.379 126.465 21.1424 126.336 20.8752C126.208 20.608 126.139 20.3165 126.133 20.0202C126.128 19.724 126.186 19.43 126.304 19.1582C126.422 18.8863 126.597 18.643 126.818 18.4446C127.273 18.0504 127.999 17.8534 128.996 17.8534H131.621V17.2385C131.621 16.5261 131.428 15.9842 131.041 15.6127C130.655 15.2413 130.091 15.0555 129.348 15.0555C128.85 15.0533 128.355 15.1425 127.889 15.3186C127.453 15.4757 127.051 15.7139 126.704 16.0207L126.336 15.4945C126.739 15.1409 127.208 14.8697 127.716 14.6964C128.257 14.5061 128.827 14.4097 129.401 14.4111C130.353 14.4131 131.082 14.6555 131.591 15.1383ZM130.616 21.13C131.075 20.8197 131.426 20.3751 131.621 19.8575V18.4239H129.01C128.258 18.4239 127.715 18.5603 127.381 18.8333C127.214 18.9687 127.082 19.1411 126.994 19.3366C126.907 19.5322 126.866 19.7455 126.876 19.9595C126.866 20.1868 126.912 20.413 127.009 20.6188C127.106 20.8247 127.251 21.0041 127.433 21.1419C127.804 21.4286 128.327 21.5724 129.001 21.5734C129.572 21.5884 130.134 21.4341 130.616 21.13V21.13Z" fill="white"/>
<path d="M142.193 11.2544V22.1101H141.481V20.31C141.2 20.883 140.757 21.3613 140.206 21.6859C139.641 22.013 138.997 22.1801 138.344 22.1692C137.666 22.1781 136.998 22.0061 136.409 21.6712C135.838 21.3469 135.368 20.8711 135.052 20.2966C134.717 19.6818 134.547 18.9908 134.56 18.291C134.548 17.5895 134.718 16.8968 135.052 16.2795C135.366 15.7032 135.836 15.2268 136.409 14.905C136.999 14.5746 137.667 14.4054 138.344 14.4143C138.99 14.4041 139.626 14.5713 140.184 14.8976C140.728 15.2199 141.172 15.6859 141.467 16.244V11.2544H142.193ZM139.957 21.1007C140.421 20.8277 140.801 20.4331 141.056 19.9597C141.321 19.4434 141.459 18.8717 141.459 18.2918C141.459 17.7118 141.321 17.1401 141.056 16.6239C140.801 16.1505 140.421 15.7559 139.957 15.4829C139.475 15.2144 138.933 15.0735 138.381 15.0735C137.829 15.0735 137.286 15.2144 136.804 15.4829C136.34 15.7558 135.959 16.1504 135.704 16.6239C135.439 17.1401 135.301 17.7118 135.301 18.2918C135.301 18.8717 135.439 19.4434 135.704 19.9597C135.959 20.4332 136.34 20.8278 136.804 21.1007C137.286 21.3691 137.829 21.5101 138.381 21.5101C138.933 21.5101 139.475 21.3691 139.957 21.1007V21.1007Z" fill="white"/>
<path d="M150.089 21.6713C149.513 21.3455 149.039 20.8672 148.719 20.2894C148.392 19.6749 148.221 18.9898 148.221 18.2941C148.221 17.5984 148.392 16.9133 148.719 16.2988C149.039 15.721 149.513 15.2427 150.089 14.9169C150.689 14.5902 151.363 14.4189 152.047 14.4189C152.731 14.4189 153.404 14.5902 154.004 14.9169C154.581 15.2427 155.055 15.7209 155.376 16.2988C155.702 16.9136 155.873 17.5986 155.873 18.2941C155.873 18.9896 155.702 19.6746 155.376 20.2894C155.055 20.8673 154.581 21.3455 154.004 21.6713C153.404 21.998 152.731 22.1693 152.047 22.1693C151.363 22.1693 150.689 21.998 150.089 21.6713V21.6713ZM153.624 21.1008C154.088 20.8278 154.468 20.4332 154.723 19.9598C154.988 19.4435 155.126 18.8718 155.126 18.2919C155.126 17.7119 154.988 17.1403 154.723 16.624C154.468 16.1506 154.088 15.756 153.624 15.483C153.142 15.2145 152.599 15.0736 152.047 15.0736C151.496 15.0736 150.953 15.2145 150.471 15.483C150.007 15.7559 149.626 16.1505 149.37 16.624C149.106 17.1403 148.967 17.7119 148.967 18.2919C148.967 18.8718 149.106 19.4435 149.37 19.9598C149.626 20.4333 150.007 20.8279 150.471 21.1008C150.953 21.3692 151.496 21.5102 152.047 21.5102C152.599 21.5102 153.142 21.3692 153.624 21.1008V21.1008Z" fill="white"/>
<path d="M164.16 15.2493C164.717 15.805 164.996 16.6046 164.996 17.648V22.11H164.262V17.7071C164.262 16.8489 164.045 16.1952 163.61 15.7459C163.176 15.2966 162.567 15.0724 161.784 15.0734C160.884 15.0734 160.175 15.3414 159.658 15.8774C159.14 16.4134 158.881 17.1351 158.88 18.0426V22.11H158.148V14.4733H158.852V16.1272C159.11 15.5973 159.523 15.1582 160.037 14.8679C160.604 14.5548 161.245 14.3982 161.893 14.4142C162.846 14.4142 163.602 14.6926 164.16 15.2493Z" fill="white"/>
<path d="M175.582 21.6267C175.383 21.8108 175.145 21.9486 174.886 22.0302C174.604 22.1228 174.31 22.1697 174.013 22.1691C173.348 22.1691 172.835 21.9859 172.474 21.6193C172.114 21.2528 171.933 20.7434 171.932 20.0911V15.1029H170.519V14.4733H171.926V12.8062H172.659V14.4733H175.093V15.1029H172.659V20.0187C172.659 20.5153 172.778 20.8936 173.018 21.1523C173.258 21.4109 173.61 21.5395 174.081 21.5395C174.516 21.5538 174.94 21.4021 175.267 21.1153L175.582 21.6267Z" fill="white"/>
<path d="M183.634 15.2494C184.191 15.8051 184.47 16.6047 184.47 17.6481V22.1101H183.729V17.7072C183.729 16.849 183.511 16.1953 183.076 15.746C182.64 15.2967 182.032 15.0725 181.25 15.0735C180.352 15.0735 179.643 15.3415 179.124 15.8775C178.606 16.4135 178.347 17.1352 178.347 18.0427V22.1101H177.613V11.2544H178.347V16.0682C178.603 15.55 179.012 15.1232 179.52 14.8459C180.084 14.5476 180.715 14.399 181.353 14.4143C182.317 14.4143 183.077 14.6927 183.634 15.2494Z" fill="white"/>
<path d="M193.972 18.4669H187.387C187.397 19.0266 187.554 19.5739 187.841 20.0543C188.119 20.5115 188.517 20.8837 188.993 21.1303C189.46 21.3602 189.971 21.4888 190.491 21.5076C191.012 21.5265 191.531 21.4351 192.013 21.2396C192.429 21.0663 192.794 20.7925 193.077 20.443L193.502 20.9248C193.165 21.3288 192.735 21.6452 192.249 21.8471C191.661 22.0864 191.027 22.1947 190.392 22.1643C189.758 22.1339 189.137 21.9656 188.575 21.6712C187.99 21.3507 187.505 20.8749 187.175 20.2967C186.83 19.685 186.655 18.9927 186.668 18.2911C186.658 17.5962 186.822 16.9098 187.145 16.2943C187.446 15.7216 187.901 15.2433 188.458 14.9124C189.029 14.5884 189.674 14.418 190.331 14.418C190.988 14.418 191.634 14.5884 192.204 14.9124C192.757 15.2402 193.209 15.7137 193.51 16.281C193.834 16.8934 193.998 17.5777 193.987 18.2704L193.972 18.4669ZM188.889 15.4164C188.459 15.6545 188.101 16.0031 187.852 16.4259C187.589 16.8766 187.437 17.3831 187.407 17.9038H193.274C193.252 17.3866 193.099 16.8833 192.83 16.4406C192.572 16.0132 192.205 15.6611 191.768 15.4198C191.33 15.1784 190.836 15.0565 190.336 15.0661C189.832 15.0571 189.333 15.1777 188.889 15.4164V15.4164Z" fill="white"/>
<path d="M81.5333 44.7499H72.7614L71.0326 48.7995H67.6755L75.5689 31.2988H78.7763L86.6948 48.7995H83.2874L81.5333 44.7499ZM80.4548 42.1989L77.1481 34.5489L73.8652 42.1989H80.4548Z" fill="white"/>
<path d="M99.5378 36.1493C100.555 36.7049 101.394 37.5366 101.957 38.5481C102.533 39.6545 102.834 40.8831 102.834 42.1299C102.834 43.3768 102.533 44.6054 101.957 45.7118C101.397 46.729 100.558 47.5658 99.5378 48.1239C98.4654 48.7021 97.2618 48.9948 96.043 48.9737C94.2385 48.9737 92.8099 48.3737 91.7571 47.1735V53.6485H88.6252V35.4517H91.6074V37.2016C92.1168 36.5741 92.776 36.0842 93.5245 35.7769C94.3239 35.4529 95.1802 35.2916 96.043 35.3024C97.2615 35.2804 98.4651 35.5721 99.5378 36.1493V36.1493ZM98.5363 45.1487C99.279 44.3831 99.6509 43.3746 99.6518 42.1233C99.6528 40.8719 99.281 39.864 98.5363 39.0994C97.7926 38.3318 96.8444 37.9485 95.6918 37.9495C94.9819 37.9385 94.2818 38.1149 93.6622 38.4609C93.0578 38.8051 92.5629 39.3122 92.2341 39.9241C91.8874 40.6058 91.7067 41.3595 91.7067 42.124C91.7067 42.8885 91.8874 43.6422 92.2341 44.324C92.5629 44.9359 93.0578 45.443 93.6622 45.7872C94.2818 46.1331 94.9819 46.3095 95.6918 46.2986C96.8444 46.2986 97.7926 45.9153 98.5363 45.1487V45.1487Z" fill="white"/>
<path d="M116.729 36.1493C117.746 36.7049 118.585 37.5366 119.148 38.5481C119.724 39.6545 120.025 40.8831 120.025 42.13C120.025 43.3768 119.724 44.6054 119.148 45.7118C118.588 46.729 117.749 47.5658 116.729 48.1239C115.656 48.7023 114.452 48.995 113.233 48.9737C111.429 48.9737 110.001 48.3737 108.948 47.1736V53.6486H105.816V35.4517H108.797V37.2016C109.307 36.5747 109.966 36.085 110.714 35.7769C111.514 35.4532 112.37 35.2919 113.233 35.3025C114.452 35.2802 115.656 35.5719 116.729 36.1493ZM115.727 45.1487C116.47 44.3831 116.841 43.3747 116.841 42.1233C116.841 40.872 116.47 39.864 115.727 39.0994C114.984 38.3318 114.036 37.9485 112.883 37.9495C112.173 37.9385 111.473 38.115 110.853 38.4609C110.249 38.8056 109.754 39.3126 109.424 39.9241C109.078 40.6062 108.898 41.3598 108.898 42.124C108.898 42.8883 109.078 43.6419 109.424 44.324C109.753 44.9358 110.249 45.4429 110.853 45.7872C111.473 46.1331 112.173 46.3096 112.883 46.2986C114.036 46.2986 114.984 45.9153 115.727 45.1487V45.1487Z" fill="white"/>
<path d="M131.739 48.4742C130.479 48.0919 129.481 47.5835 128.745 46.9489L129.873 44.4245C130.669 45.032 131.562 45.5007 132.516 45.8109C133.527 46.164 134.59 46.3459 135.661 46.3489C136.964 46.3489 137.938 46.1405 138.581 45.7237C139.224 45.3069 139.545 44.7571 139.545 44.0743C139.551 43.8412 139.506 43.6096 139.413 43.3957C139.321 43.1818 139.182 42.9907 139.007 42.8357C138.61 42.4904 138.145 42.2313 137.641 42.0746C137.088 41.8913 136.336 41.6829 135.385 41.4494C134.284 41.2024 133.201 40.885 132.141 40.499C131.318 40.1859 130.587 39.6746 130.01 39.0107C129.418 38.3368 129.121 37.4244 129.121 36.2735C129.113 35.3354 129.388 34.4166 129.911 33.6368C130.438 32.8485 131.231 32.2194 132.292 31.7494C133.353 31.2794 134.652 31.0459 136.19 31.0489C137.255 31.0482 138.316 31.1828 139.347 31.4494C140.299 31.6793 141.206 32.068 142.028 32.5993L141 35.1236C140.246 34.6804 139.437 34.3361 138.594 34.0994C137.804 33.8723 136.987 33.7544 136.164 33.7491C134.88 33.7491 133.924 33.9659 133.295 34.3994C133.003 34.5823 132.763 34.8371 132.599 35.1392C132.434 35.4412 132.351 35.7805 132.356 36.1242C132.349 36.3554 132.394 36.5852 132.486 36.7971C132.579 37.009 132.718 37.1976 132.893 37.3495C133.294 37.6882 133.758 37.9431 134.259 38.0988C134.81 38.2821 135.562 38.4905 136.514 38.724C137.604 38.9607 138.677 39.2738 139.723 39.661C140.546 39.9789 141.281 40.4893 141.865 41.1494C142.458 41.8164 142.754 42.7165 142.754 43.8496C142.764 44.784 142.489 45.6994 141.966 46.4745C141.439 47.2627 140.64 47.8874 139.572 48.3486C138.503 48.8097 137.2 49.0432 135.662 49.0491C134.333 49.0526 133.011 48.8589 131.739 48.4742Z" fill="white"/>
<path d="M153.729 48.0735C153.333 48.388 152.877 48.6179 152.388 48.7489C151.846 48.9007 151.285 48.9763 150.722 48.9735C149.252 48.9735 148.116 48.5903 147.314 47.8237C146.512 47.0571 146.111 45.9403 146.111 44.4731V38.0483H143.905V35.5491H146.111V32.4956H149.243V35.5461H152.827V38.0454H149.243V44.4007C149.243 45.05 149.402 45.5456 149.72 45.8875C150.038 46.2294 150.497 46.4004 151.098 46.4004C151.728 46.4231 152.348 46.229 152.852 45.8506L153.729 48.0735Z" fill="white"/>
<path d="M158.222 48.0986C157.162 47.5404 156.28 46.6958 155.679 45.6614C155.079 44.5805 154.764 43.3653 154.764 42.1298C154.764 40.8944 155.079 39.6792 155.679 38.5982C156.284 37.5697 157.165 36.7302 158.222 36.1743C159.36 35.5991 160.618 35.2993 161.893 35.2993C163.169 35.2993 164.427 35.5991 165.564 36.1743C166.622 36.7297 167.504 37.5693 168.108 38.5982C168.709 39.6789 169.024 40.8942 169.024 42.1298C169.024 43.3655 168.709 44.5808 168.108 45.6614C167.507 46.6961 166.625 47.5408 165.564 48.0986C164.427 48.6739 163.169 48.9736 161.893 48.9736C160.618 48.9736 159.36 48.6739 158.222 48.0986V48.0986ZM164.741 45.1427C165.493 44.3771 165.869 43.3686 165.868 42.1173C165.867 40.8659 165.491 39.8579 164.741 39.0933C163.99 38.3258 163.038 37.9425 161.884 37.9435C160.731 37.9444 159.783 38.3277 159.04 39.0933C158.296 39.8589 157.924 40.8669 157.924 42.1173C157.924 43.3676 158.296 44.3761 159.04 45.1427C159.784 45.9102 160.732 46.2935 161.884 46.2925C163.037 46.2915 163.986 45.9102 164.73 45.1486L164.741 45.1427Z" fill="white"/>
<path d="M179.766 35.3037V38.2774C179.527 38.2311 179.284 38.2064 179.04 38.2035C177.819 38.2035 176.867 38.5577 176.182 39.2662C175.498 39.9746 175.156 40.9954 175.156 42.3285V48.8035H172.022V35.4515H175.004V37.4009C175.907 36.0028 177.494 35.3037 179.766 35.3037Z" fill="white"/>
<path d="M194.827 43.1238H184.327C184.482 44.0615 185 44.9011 185.769 45.462C186.545 46.0364 187.51 46.3236 188.662 46.3236C190.134 46.3236 191.345 45.8403 192.296 44.8737L193.975 46.7951C193.364 47.5193 192.58 48.0784 191.695 48.4209C190.703 48.8011 189.646 48.9877 188.584 48.9707C187.113 48.9707 185.818 48.679 184.699 48.0957C183.617 47.5493 182.717 46.7031 182.105 45.6585C181.486 44.5829 181.171 43.3603 181.191 42.1203C181.173 40.8921 181.48 39.6809 182.08 38.6086C182.658 37.5816 183.513 36.7371 184.548 36.1714C185.638 35.5788 186.863 35.2774 188.104 35.2964C189.324 35.2756 190.529 35.5726 191.6 36.1581C192.617 36.7223 193.451 37.5635 194.006 38.5834C194.583 39.6249 194.871 40.829 194.87 42.1956C194.877 42.4158 194.861 42.7233 194.827 43.1238ZM185.567 38.6899C184.867 39.2948 184.416 40.1374 184.302 41.0546H191.895C191.792 40.1459 191.354 39.3077 190.667 38.7032C189.98 38.1031 189.128 37.8031 188.11 37.8031C187.182 37.7761 186.277 38.0907 185.567 38.6869V38.6899Z" fill="white"/>
</svg>
