<svg width="216" height="66" viewBox="0 0 216 66" fill="none" xmlns="http://www.w3.org/2000/svg">
<path d="M207.65 1.47798C209.471 1.47993 211.217 2.20225 212.504 3.48648C213.792 4.77072 214.516 6.51201 214.519 8.32839V57.2021C214.516 59.0186 213.792 60.76 212.504 62.0445C211.217 63.329 209.471 64.0516 207.65 64.054H8.34965C6.52882 64.0516 4.78321 63.329 3.4957 62.0445C2.20818 60.76 1.48383 59.0186 1.48148 57.2021V8.32839C1.48383 6.51201 2.20824 4.77072 3.4958 3.48648C4.78336 2.20225 6.52896 1.47993 8.34965 1.47798H207.65ZM207.65 1.31156e-07H8.34965C7.25323 -0.000193981 6.16749 0.21508 5.15448 0.633534C4.14146 1.05199 3.22099 1.66542 2.44564 2.4388C1.67028 3.21219 1.05522 4.13036 0.635598 5.14091C0.215971 6.15145 -1.72647e-08 7.23456 0 8.32839V57.2021C0 59.4113 0.879706 61.53 2.44557 63.0922C4.01143 64.6543 6.13519 65.532 8.34965 65.532H207.65C208.747 65.532 209.833 65.3165 210.846 64.8979C211.859 64.4793 212.779 63.8657 213.554 63.0922C214.33 62.3187 214.945 61.4004 215.364 60.3898C215.784 59.3792 216 58.296 216 57.2021V8.32839C216 7.23456 215.784 6.15145 215.364 5.14091C214.945 4.13036 214.33 3.21219 213.554 2.4388C212.779 1.66542 211.859 1.05199 210.846 0.633534C209.833 0.21508 208.747 -0.000193981 207.65 1.31156e-07Z" fill="white"/>
<path d="M67.1718 18.7597H61.2192L59.914 21.6418H59.1111L63.834 11.4023H64.5748L69.2978 21.6418H68.4904L67.1718 18.7597ZM66.8933 18.1316L64.1955 12.2197L61.5126 18.1316H66.8933Z" fill="white"/>
<path d="M76.6904 14.0068L73.2296 21.6421H72.4815L69.037 14.0068H69.8133L72.8637 20.838L75.9437 14.0068H76.6904Z" fill="white"/>
<path d="M82.8148 14.672C83.3225 15.1548 83.5768 15.8642 83.5778 16.8003V21.6421H82.8741V20.2824C82.6302 20.7304 82.2571 21.095 81.803 21.3288C81.2802 21.5893 80.7012 21.7172 80.1171 21.7013C79.2667 21.7013 78.5946 21.5013 78.1008 21.1012C77.8731 20.9112 77.689 20.6747 77.5608 20.4077C77.4326 20.1406 77.3633 19.8492 77.3577 19.5532C77.3521 19.2572 77.4103 18.9634 77.5282 18.6917C77.6462 18.42 77.8212 18.1767 78.0415 17.9783C78.4968 17.5841 79.2227 17.3871 80.2193 17.3871H82.8445V16.7722C82.8445 16.0613 82.6519 15.5189 82.2652 15.1464C81.8785 14.774 81.3141 14.5893 80.5719 14.5893C80.0733 14.5877 79.5787 14.6773 79.1126 14.8538C78.6763 15.0103 78.274 15.2486 77.9274 15.5558L77.5704 15.0282C77.9726 14.6748 78.4408 14.404 78.9482 14.2316C79.4895 14.0405 80.0599 13.944 80.6341 13.9463C81.5822 13.9473 82.3092 14.1892 82.8148 14.672ZM81.84 20.6622C82.2987 20.3519 82.6496 19.9073 82.8445 19.3897V17.9561H80.2341C79.4815 17.9561 78.9383 18.0925 78.6045 18.3655C78.4381 18.5009 78.3058 18.6733 78.2181 18.8689C78.1304 19.0644 78.0897 19.2777 78.0993 19.4917C78.0894 19.719 78.1349 19.9454 78.2319 20.1513C78.3289 20.3572 78.4745 20.5366 78.6563 20.6741C79.0277 20.9628 79.5506 21.1066 80.2252 21.1056C80.7971 21.1217 81.3609 20.9673 81.8445 20.6622H81.84Z" fill="white"/>
<path d="M86.5437 11.9803C86.4865 11.9268 86.4413 11.8619 86.4109 11.7899C86.3805 11.7178 86.3657 11.6402 86.3674 11.562C86.3674 11.4836 86.383 11.406 86.4133 11.3337C86.4436 11.2614 86.4881 11.1958 86.5441 11.1408C86.6 11.0858 86.6664 11.0424 86.7393 11.0133C86.8123 10.9841 86.8903 10.9697 86.9689 10.9708C87.0473 10.9692 87.1253 10.9831 87.1982 11.0118C87.2712 11.0405 87.3378 11.0833 87.394 11.1378C87.4515 11.1911 87.4969 11.2559 87.5273 11.328C87.5577 11.4002 87.5724 11.4779 87.5704 11.5561C87.5704 11.6345 87.5547 11.7121 87.5244 11.7844C87.494 11.8567 87.4496 11.9223 87.3936 11.9773C87.3377 12.0323 87.2713 12.0757 87.1984 12.1049C87.1254 12.1341 87.0474 12.1485 86.9689 12.1473C86.8904 12.1489 86.8125 12.135 86.7395 12.1063C86.6665 12.0777 86.5999 12.0348 86.5437 11.9803ZM86.6029 14.0066H87.3363V21.6418H86.6029V14.0066Z" fill="white"/>
<path d="M90.4296 10.7876H91.163V21.6418H90.4296V10.7876Z" fill="white"/>
<path d="M99.0237 14.672C99.5323 15.1548 99.7862 15.8642 99.7852 16.8003V21.6421H99.0815V20.2824C98.8378 20.73 98.4652 21.0945 98.0118 21.3288C97.4886 21.5895 96.909 21.7175 96.3244 21.7013C95.474 21.7013 94.802 21.5013 94.3081 21.1012C94.0806 20.9111 93.8966 20.6746 93.7685 20.4074C93.6404 20.1403 93.5713 19.8489 93.5658 19.5529C93.5604 19.2568 93.6187 18.9631 93.7367 18.6914C93.8548 18.4198 94.03 18.1766 94.2503 17.9783C94.7037 17.5841 95.4296 17.3871 96.4281 17.3871H99.0518V16.7722C99.0518 16.0613 98.8592 15.5189 98.4726 15.1464C98.0859 14.774 97.5215 14.5893 96.7792 14.5893C96.2807 14.5878 95.7861 14.6775 95.32 14.8538C94.8838 15.0106 94.4816 15.2489 94.1348 15.5558L93.7778 15.0282C94.18 14.6748 94.6482 14.404 95.1555 14.2316C95.6974 14.0405 96.2682 13.944 96.8429 13.9463C97.7881 13.9473 98.515 14.1892 99.0237 14.672ZM98.0474 20.6622C98.506 20.3519 98.857 19.9073 99.0518 19.3897V17.9561H96.4444C95.6918 17.9561 95.1486 18.0925 94.8148 18.3655C94.648 18.5006 94.5153 18.6729 94.4273 18.8685C94.3393 19.0641 94.2985 19.2775 94.3081 19.4917C94.2986 19.719 94.3443 19.9452 94.4413 20.151C94.5383 20.3569 94.6837 20.5364 94.8652 20.6741C95.2375 20.9628 95.761 21.1066 96.4355 21.1056C97.005 21.1203 97.566 20.966 98.0474 20.6622Z" fill="white"/>
<path d="M108.584 14.4367C109.156 14.759 109.626 15.2353 109.941 15.8112C110.263 16.4317 110.431 17.1203 110.431 17.8191C110.431 18.5179 110.263 19.2064 109.941 19.8269C109.624 20.4011 109.154 20.8772 108.584 21.2029C107.995 21.5372 107.327 21.7087 106.649 21.6995C105.997 21.7089 105.355 21.5391 104.793 21.2088C104.243 20.8844 103.798 20.4101 103.51 19.8417V21.6404H102.806V10.7876H103.539V15.7462C103.829 15.1912 104.272 14.7299 104.815 14.416C105.372 14.0959 106.006 13.9316 106.649 13.9401C107.326 13.9322 107.994 14.1036 108.584 14.4367ZM108.188 20.6309C108.656 20.3603 109.039 19.9653 109.295 19.4899C109.56 18.9739 109.698 18.4025 109.698 17.8228C109.698 17.243 109.56 16.6716 109.295 16.1556C109.039 15.6801 108.656 15.2847 108.188 15.0131C107.707 14.7375 107.16 14.5961 106.604 14.6037C106.052 14.5953 105.507 14.7368 105.028 15.0131C104.564 15.2869 104.183 15.6819 103.927 16.1556C103.663 16.6716 103.524 17.243 103.524 17.8228C103.524 18.4025 103.663 18.9739 103.927 19.4899C104.183 19.9637 104.563 20.3584 105.028 20.6309C105.506 20.9084 106.051 21.0505 106.604 21.0418C107.16 21.0501 107.707 20.9087 108.188 20.6324V20.6309Z" fill="white"/>
<path d="M112.705 10.7876H113.437V21.6418H112.705V10.7876Z" fill="white"/>
<path d="M122.999 18.0003H116.415C116.424 18.5598 116.58 19.1072 116.868 19.5876C117.146 20.0447 117.545 20.4165 118.021 20.6621C118.488 20.893 118.999 21.0222 119.519 21.041C120.04 21.0599 120.559 20.968 121.042 20.7715C121.457 20.599 121.822 20.325 122.104 19.9748L122.529 20.4581C122.192 20.8615 121.762 21.1775 121.276 21.3789C120.687 21.6181 120.054 21.7264 119.419 21.6963C118.785 21.6661 118.164 21.4983 117.602 21.2045C117.017 20.8829 116.533 20.4068 116.202 19.8285C115.858 19.2172 115.683 18.5253 115.696 17.8244C115.685 17.1296 115.849 16.4432 116.172 15.8276C116.474 15.2551 116.928 14.7765 117.484 14.4443C118.056 14.1208 118.701 13.9507 119.358 13.9507C120.015 13.9507 120.66 14.1208 121.231 14.4443C121.784 14.771 122.236 15.2442 122.536 15.8114C122.861 16.4237 123.025 17.1081 123.013 17.8007L122.999 18.0003ZM117.91 14.9497C117.48 15.1874 117.121 15.5361 116.873 15.9592C116.609 16.4098 116.457 16.9164 116.428 17.4371H122.293C122.271 16.9198 122.119 16.4164 121.849 15.974C121.591 15.5466 121.224 15.1945 120.787 14.953C120.349 14.7115 119.856 14.5891 119.356 14.598C118.851 14.5891 118.353 14.7103 117.91 14.9497Z" fill="white"/>
<path d="M130.089 21.2045C129.513 20.8783 129.038 20.3995 128.717 19.8212C128.391 19.2065 128.22 18.5215 128.22 17.8259C128.22 17.1303 128.391 16.4453 128.717 15.8306C129.038 15.2522 129.513 14.7735 130.089 14.4472C130.69 14.1214 131.362 13.9507 132.046 13.9507C132.73 13.9507 133.402 14.1214 134.003 14.4472C134.579 14.7735 135.054 15.2522 135.375 15.8306C135.702 16.445 135.873 17.1301 135.873 17.8259C135.873 18.5216 135.702 19.2068 135.375 19.8212C135.054 20.3995 134.579 20.8783 134.003 21.2045C133.402 21.5304 132.73 21.7011 132.046 21.7011C131.362 21.7011 130.69 21.5304 130.089 21.2045ZM133.622 20.6326C134.087 20.3596 134.467 19.965 134.723 19.4916C134.988 18.9756 135.126 18.4041 135.126 17.8244C135.126 17.2447 134.988 16.6733 134.723 16.1573C134.467 15.6836 134.087 15.2886 133.622 15.0148C133.14 14.7463 132.598 14.6054 132.046 14.6054C131.494 14.6054 130.951 14.7463 130.47 15.0148C130.006 15.2884 129.625 15.6835 129.37 16.1573C129.105 16.673 128.966 17.2445 128.966 17.8244C128.966 18.4043 129.105 18.9758 129.37 19.4916C129.625 19.9653 130.005 20.36 130.47 20.6326C130.951 20.902 131.494 21.0435 132.046 21.0435C132.598 21.0435 133.141 20.902 133.622 20.6326Z" fill="white"/>
<path d="M144.159 14.7811C144.716 15.3368 144.994 16.1364 144.994 17.1798V21.6418H144.261V17.2449C144.261 16.3857 144.043 15.7324 143.609 15.2851C143.174 14.8377 142.564 14.6111 141.778 14.6052C140.877 14.6052 140.168 14.8737 139.65 15.4107C139.133 15.9477 138.874 16.6694 138.874 17.5759V21.6418H138.133V14.0066H138.837V15.659C139.095 15.1294 139.508 14.6907 140.022 14.4012C140.589 14.0875 141.229 13.9308 141.877 13.9475C142.84 13.9475 143.6 14.2254 144.159 14.7811Z" fill="white"/>
<path d="M155.582 21.1599C155.383 21.3433 155.145 21.4805 154.886 21.5619C154.605 21.6551 154.31 21.702 154.013 21.7009C153.348 21.7009 152.834 21.5181 152.473 21.1525C152.111 20.786 151.93 20.2776 151.93 19.6228V14.6347H150.519V14.0065H151.926V12.3379H152.659V14.0065H155.093V14.6347H152.659V19.5504C152.659 20.0485 152.779 20.4254 153.018 20.684C153.256 20.9427 153.61 21.0712 154.082 21.0712C154.516 21.0866 154.941 20.9348 155.267 20.6471L155.582 21.1599Z" fill="white"/>
<path d="M163.633 14.7811C164.19 15.3368 164.468 16.1364 164.468 17.1798V21.6418H163.735V17.2449C163.735 16.3857 163.518 15.7324 163.083 15.2851C162.648 14.8377 162.039 14.6131 161.256 14.6111C160.357 14.6111 159.648 14.8796 159.13 15.4166C158.613 15.9536 158.354 16.6754 158.353 17.5819V21.6478H157.621V10.7876H158.353V15.5999C158.609 15.0823 159.018 14.656 159.526 14.3791C160.09 14.0799 160.722 13.9312 161.36 13.9475C162.317 13.9475 163.075 14.2254 163.633 14.7811Z" fill="white"/>
<path d="M173.97 18.0003H167.387C167.396 18.5598 167.552 19.1072 167.84 19.5876C168.118 20.0447 168.517 20.4165 168.993 20.6621C169.46 20.893 169.97 21.0222 170.491 21.041C171.012 21.0599 171.531 20.968 172.013 20.7715C172.429 20.599 172.794 20.325 173.076 19.9748L173.501 20.4581C173.164 20.8615 172.734 21.1775 172.247 21.3789C171.659 21.6181 171.026 21.7264 170.391 21.6963C169.757 21.6661 169.136 21.4983 168.573 21.2045C167.989 20.8829 167.504 20.4068 167.173 19.8285C166.829 19.2172 166.655 18.5253 166.668 17.8244C166.657 17.1296 166.821 16.4432 167.144 15.8276C167.446 15.2551 167.9 14.7765 168.456 14.4443C169.027 14.1208 169.673 13.9507 170.33 13.9507C170.986 13.9507 171.632 14.1208 172.203 14.4443C172.756 14.771 173.208 15.2442 173.508 15.8114C173.833 16.4237 173.997 17.1081 173.985 17.8007L173.97 18.0003ZM168.889 14.9497C168.459 15.1874 168.101 15.5361 167.852 15.9592C167.588 16.4095 167.436 16.9162 167.407 17.4371H173.273C173.251 16.9198 173.098 16.4164 172.828 15.974C172.57 15.5466 172.204 15.1945 171.766 14.953C171.328 14.7115 170.835 14.5891 170.335 14.598C169.831 14.5891 169.333 14.7103 168.889 14.9497Z" fill="white"/>
<path d="M70.7882 39.5844H73.8015V46.4008C72.8802 47.1219 71.8343 47.6684 70.7156 48.0133C69.5439 48.388 68.3208 48.5779 67.0904 48.5764C65.4443 48.6005 63.8187 48.2096 62.3645 47.4399C60.9951 46.715 59.8513 45.6292 59.0578 44.3006C58.2713 42.9233 57.8577 41.3654 57.8577 39.7803C57.8577 38.1951 58.2713 36.6372 59.0578 35.2599C59.853 33.9285 61.0015 32.8422 62.3763 32.1207C63.8433 31.3493 65.4812 30.9585 67.1393 30.9841C68.4791 30.9662 69.8097 31.2071 71.0578 31.6935C72.1966 32.1379 73.2124 32.8473 74.0207 33.7627L72.0134 35.7195C71.4008 35.0891 70.6653 34.5906 69.8523 34.2545C69.0393 33.9185 68.1659 33.7521 67.2859 33.7656C66.1658 33.745 65.0584 34.0052 64.0652 34.5224C63.1452 35.0102 62.3817 35.7468 61.8622 36.6477C61.3204 37.6001 61.0451 38.6802 61.0652 39.7751C61.0488 40.8541 61.3242 41.9176 61.8622 42.8537C62.3849 43.7586 63.147 44.5025 64.0652 45.0042C65.0453 45.5359 66.1468 45.8053 67.2622 45.786C68.6005 45.786 69.7758 45.4929 70.7882 44.9066V39.5844Z" fill="white"/>
<path d="M80 47.6468C78.9634 47.1021 78.1018 46.2768 77.5141 45.2657C76.9106 44.214 76.6035 43.019 76.6252 41.8073C76.6027 40.6002 76.91 39.4097 77.5141 38.3636C78.1056 37.3596 78.9667 36.5406 80 35.9988C81.1118 35.4363 82.3408 35.1431 83.5874 35.1431C84.834 35.1431 86.063 35.4363 87.1748 35.9988C88.2081 36.5406 89.0692 37.3596 89.6607 38.3636C90.2648 39.4097 90.5721 40.6002 90.5496 41.8073C90.5712 43.019 90.2641 44.2139 89.6607 45.2657C89.073 46.2768 88.2114 47.1021 87.1748 47.6468C86.063 48.2093 84.834 48.5025 83.5874 48.5025C82.3408 48.5025 81.1118 48.2093 80 47.6468ZM86.3704 44.7647C87.1052 44.0149 87.4726 43.0296 87.4726 41.8088C87.4726 40.588 87.1052 39.6026 86.3704 38.8528C85.6356 38.103 84.7047 37.7286 83.5778 37.7295C82.4508 37.7305 81.5244 38.105 80.7985 38.8528C80.0726 39.6016 79.7091 40.587 79.7081 41.8088C79.7072 43.0306 80.0706 44.0159 80.7985 44.7647C81.5244 45.5135 82.4508 45.888 83.5778 45.888C84.7047 45.888 85.6356 45.5135 86.3704 44.7647Z" fill="white"/>
<path d="M95.7926 47.6468C94.7566 47.1013 93.8952 46.2762 93.3067 45.2658C92.7039 44.2137 92.3968 43.0189 92.4178 41.8073C92.3958 40.6003 92.7031 39.4099 93.3067 38.3636C93.8991 37.3604 94.7599 36.5415 95.7926 35.9989C96.9046 35.4363 98.1339 35.1431 99.3808 35.1431C100.628 35.1431 101.857 35.4363 102.969 35.9989C104.002 36.5415 104.862 37.3604 105.455 38.3636C106.058 39.4099 106.366 40.6003 106.344 41.8073C106.365 43.0189 106.058 44.2137 105.455 45.2658C104.865 46.277 104.001 47.1021 102.963 47.6468C101.851 48.2094 100.622 48.5026 99.3748 48.5026C98.128 48.5026 96.8987 48.2094 95.7867 47.6468H95.7926ZM102.163 44.7647C102.898 44.0149 103.265 43.0296 103.265 41.8088C103.265 40.588 102.898 39.6027 102.163 38.8528C101.428 38.103 100.498 37.7286 99.3719 37.7296C98.2459 37.7305 97.3195 38.105 96.5926 38.8528C95.8657 39.6017 95.5022 40.587 95.5022 41.8088C95.5022 43.0306 95.8657 44.0159 96.5926 44.7647C97.3185 45.5136 98.2449 45.888 99.3719 45.888C100.499 45.888 101.428 45.5136 102.16 44.7647H102.163Z" fill="white"/>
<path d="M122.267 35.2852V46.3523C122.267 50.9459 119.916 53.2426 115.213 53.2426C114.005 53.2494 112.802 53.0893 111.639 52.7667C110.622 52.5039 109.671 52.0339 108.846 51.3863L110.218 49.0895C110.862 49.6005 111.598 49.9856 112.385 50.2246C113.243 50.5077 114.14 50.6524 115.043 50.6532C116.478 50.6532 117.531 50.3276 118.202 49.6763C118.872 49.025 119.207 48.0313 119.206 46.6952V46.0109C118.678 46.5846 118.024 47.0279 117.295 47.3056C116.506 47.6067 115.667 47.7571 114.822 47.749C113.651 47.7659 112.494 47.4927 111.455 46.9538C110.472 46.4427 109.652 45.6689 109.084 44.7191C108.495 43.7208 108.194 42.5789 108.215 41.4203C108.193 40.2657 108.494 39.1279 109.084 38.1348C109.652 37.1899 110.473 36.422 111.455 35.9178C112.497 35.388 113.653 35.1197 114.822 35.136C115.705 35.1244 116.583 35.2825 117.406 35.6015C118.165 35.8998 118.836 36.3873 119.353 37.0174V35.2852H122.267ZM118.141 44.1176C118.883 43.4279 119.255 42.5278 119.255 41.4173C119.255 40.3266 118.883 39.4398 118.141 38.757C117.398 38.0742 116.447 37.7323 115.287 37.7313C114.111 37.7313 113.152 38.0732 112.41 38.757C111.669 39.4408 111.297 40.3276 111.295 41.4173C111.295 42.5258 111.667 43.4259 112.41 44.1176C113.154 44.8093 114.113 45.1542 115.287 45.1522C116.446 45.1542 117.397 44.8093 118.141 44.1176Z" fill="white"/>
<path d="M126.283 30.2026H129.345V48.3315H126.283V30.2026Z" fill="white"/>
<path d="M145.606 42.7857H135.345C135.497 43.7012 136.002 44.5209 136.753 45.0691C137.511 45.6327 138.454 45.914 139.581 45.9131C141.018 45.9131 142.203 45.4406 143.136 44.4957L144.778 46.3771C144.182 47.0837 143.418 47.6295 142.556 47.9645C141.587 48.336 140.556 48.5186 139.518 48.5025C138.081 48.5025 136.816 48.2172 135.721 47.6467C134.665 47.1122 133.785 46.2856 133.187 45.2657C132.584 44.2137 132.277 43.0189 132.298 41.8073C132.28 40.6069 132.58 39.4232 133.167 38.3754C133.732 37.3719 134.568 36.5465 135.579 35.9929C136.645 35.4131 137.844 35.1183 139.058 35.1371C140.251 35.1177 141.428 35.4085 142.474 35.9811C143.467 36.5308 144.282 37.351 144.825 38.3458C145.388 39.3647 145.67 40.5416 145.67 41.8767C145.66 42.0915 145.639 42.3945 145.606 42.7857ZM136.557 38.4478C135.872 39.0384 135.431 39.8616 135.32 40.7579H142.741C142.641 39.8702 142.213 39.0514 141.541 38.4611C140.871 37.8699 140.039 37.5768 139.043 37.5817C138.136 37.5556 137.251 37.864 136.557 38.4478Z" fill="white"/>
<path d="M166.582 31.9611C167.618 32.3949 168.5 33.1265 169.117 34.0628C169.704 34.9752 169.998 36.059 169.998 37.3143C170.025 38.4556 169.718 39.5799 169.117 40.5511C168.503 41.4931 167.62 42.2294 166.582 42.6646C165.48 43.1573 164.186 43.4036 162.699 43.4036H158.831V48.3385H155.647V31.228H162.699C164.186 31.228 165.48 31.4724 166.582 31.9611ZM165.713 39.8284C166.432 39.2431 166.791 38.4056 166.79 37.3158C166.789 36.226 166.43 35.3885 165.713 34.8032C164.994 34.2121 163.94 33.9165 162.553 33.9165H158.831V40.7151H162.553C163.941 40.7112 164.995 40.4156 165.713 39.8284Z" fill="white"/>
<path d="M173.133 30.2026H176.194V48.3315H173.133V30.2026Z" fill="white"/>
<path d="M189.63 36.5178C190.65 37.4391 191.161 38.8279 191.161 40.6842V48.3313H188.271V46.7439C187.878 47.3281 187.319 47.7828 186.667 48.0504C185.87 48.3712 185.016 48.5251 184.157 48.5027C183.274 48.5221 182.396 48.3512 181.585 48.0017C180.898 47.7066 180.308 47.224 179.883 46.6094C179.483 46.0137 179.273 45.3106 179.283 44.5935C179.283 43.4219 179.72 42.4814 180.593 41.772C181.466 41.0626 182.841 40.7084 184.72 40.7093H188.099V40.5128C188.099 39.6013 187.826 38.9013 187.278 38.4126C186.731 37.9238 185.919 37.6775 184.841 37.6736C184.106 37.6738 183.374 37.789 182.674 38.015C182.019 38.2152 181.408 38.5387 180.874 38.9683L179.674 36.7513C180.417 36.202 181.256 35.7956 182.148 35.5527C183.144 35.2716 184.174 35.1318 185.209 35.1374C187.135 35.1374 188.608 35.5975 189.63 36.5178ZM186.839 45.7537C187.423 45.4172 187.87 44.8853 188.099 44.252V42.7371H184.941C183.177 42.7371 182.295 43.315 182.295 44.4708C182.287 44.7283 182.344 44.9836 182.459 45.214C182.575 45.4443 182.746 45.6425 182.957 45.7906C183.397 46.1177 184.008 46.2808 184.793 46.2798C185.509 46.2921 186.215 46.1102 186.836 45.7537H186.839Z" fill="white"/>
<path d="M207.077 35.2852L200.954 49.3821C200.382 50.799 199.688 51.7966 198.873 52.375C198.057 52.9534 197.069 53.2426 195.91 53.2426C195.252 53.2416 194.598 53.1343 193.975 52.9248C193.396 52.7459 192.861 52.4462 192.407 52.0454L193.631 49.7974C193.933 50.0791 194.285 50.303 194.668 50.458C195.052 50.6175 195.464 50.7004 195.88 50.7019C196.359 50.7202 196.83 50.5736 197.213 50.2866C197.564 50.0087 197.886 49.5447 198.181 48.8944L198.401 48.38L192.695 35.2852H195.879L200 44.9349L204.139 35.2852H207.077Z" fill="white"/>
<path d="M51.9748 31.9288L43.7452 27.1919L36.9763 33.7186L43.1615 39.6837L51.9748 34.6099C52.2104 34.4738 52.4061 34.2783 52.542 34.043C52.678 33.8077 52.7496 33.5409 52.7496 33.2693C52.7496 32.9977 52.678 32.7309 52.542 32.4956C52.4061 32.2603 52.2104 32.0649 51.9748 31.9288Z" fill="white"/>
<path d="M42.3482 26.3865L33.2919 21.1722L13.4445 11.0259L35.8608 32.6427L42.3482 26.3865Z" fill="white"/>
<path d="M13.7733 56.095L33.3259 45.3501L41.7659 40.4891L35.8607 34.7944L13.7733 56.095Z" fill="white"/>
<path d="M12.12 11.8994L12.0992 55.5588L34.7452 33.7188L12.12 11.8994Z" fill="white"/>
</svg>
